<?xml version="1.0" encoding="utf-8"?>
<!-- Generator: Adobe Illustrator 26.5.0, SVG Export Plug-In . SVG Version: 6.00 Build 0)  -->
<svg version="1.1" id="Layer_1" xmlns="http://www.w3.org/2000/svg" xmlns:xlink="http://www.w3.org/1999/xlink" x="0px" y="0px"
	 viewBox="0 0 66 61.9" style="enable-background:new 0 0 66 61.9;" xml:space="preserve">
<style type="text/css">
	.st0{fill:#D1D3D4;}
</style>
<g>
	<path id="XMLID_00000062905344147373771660000012944798671485648777_" class="st0" d="M65.3,44.1c-0.8-0.4-2.1-0.6-3.4-0.6
		c-2.8,0-4.6,1.7-4.6,3.6c0,2,1.3,2.8,3.1,3.4c1.9,0.7,2.4,1.2,2.4,2.1c0,0.9-0.7,1.8-1.9,1.8c-1.4,0-2.5-0.8-3.3-3.2L57,51.4
		l0.1,3.3c0.9,0.4,2.6,0.7,4,0.7c3,0,4.9-1.5,4.9-3.9c0-1.6-0.8-2.5-2.8-3.3c-2.1-0.8-2.9-1.4-2.9-2.3c0-1,0.7-1.7,1.6-1.7
		c1.4,0,2.3,0.9,2.9,2.9l0.6-0.1L65.3,44.1z"/>
	<path id="XMLID_00000026143336115982226550000004056531910588978615_" class="st0" d="M40.2,43.6c-1,0-1.9,0.3-2.8,0.7
		c0-2.5,0-4.6,0.1-5.4l-5.1,1v0.5l0.5,0.1c0.7,0.1,1,0.5,1.1,1.5c0.2,1.8,0.1,11.5,0,13.1c1.4,0.3,2.8,0.5,4.3,0.5
		c4,0,6.4-2.5,6.4-6.4C44.8,45.9,42.8,43.6,40.2,43.6 M38.4,54.7c-0.3,0-0.7,0-0.9-0.1c-0.1-1.1-0.1-5.6-0.1-9.5
		c0.5-0.2,0.8-0.2,1.2-0.2c1.7,0,2.6,1.9,2.6,4.3C41.2,52.3,40.1,54.7,38.4,54.7"/>
	<path id="XMLID_00000000901746456886837210000011486185816698324873_" class="st0" d="M13.3,39.2H0v0.6L0.7,40
		c1,0.1,1.4,0.8,1.5,2.2c0.2,2.8,0.2,7.7,0,10c-0.1,1.4-0.5,2.1-1.5,2.2L0,54.6v0.6h8.6v-0.6l-0.9-0.1c-1-0.1-1.4-0.8-1.5-2.2
		c-0.1-1-0.1-2.6-0.2-4.6l1.8,0.1c1.2,0,1.7,0.9,2,2.2l0.7,0v-5.4H9.7c-0.3,1.3-0.8,2.2-2,2.2L6,46.8c0-2.5,0-5,0.2-6.5h2.6
		c2.1,0,3.2,1.3,3.8,3.6l0.8-0.2L13.3,39.2z"/>
	<path id="XMLID_00000082367635241605437280000004108153567060213397_" class="st0" d="M17.7,43.5c3.8,0,5.7,2.6,5.7,6
		c0,3.3-2.1,6-5.9,6s-5.7-2.6-5.7-6C11.8,46.2,13.9,43.5,17.7,43.5 M17.5,44.2c-1.7,0-2.1,2.3-2.1,5.3c0,2.9,0.7,5.3,2.3,5.3
		c1.7,0,2.1-2.3,2.1-5.3C19.8,46.6,19,44.2,17.5,44.2"/>
	<path id="XMLID_00000147189882966184347660000012613287565838619579_" class="st0" d="M45.7,49.6c0-3.1,2-6.1,5.9-6.1
		c3.2,0,4.7,2.4,4.7,5.4h-7.1c-0.1,2.8,1.3,4.9,4,4.9c1.2,0,1.8-0.3,2.6-0.8l0.3,0.4c-0.8,1.1-2.4,2.1-4.6,2.1
		C48.2,55.5,45.7,53,45.7,49.6 M49.3,48.1l3.6-0.1c0-1.6-0.2-3.8-1.5-3.8C50,44.2,49.3,46.4,49.3,48.1"/>
	<path id="XMLID_00000052077206868737421130000005020719071423324293_" class="st0" d="M33.2,43.8c-1.3-0.8-3.6-0.4-4.8,2.3l0.1-2.6
		l-5.1,1v0.5l0.5,0.1c0.7,0.1,1,0.5,1.1,1.5c0.2,1.8,0.1,5,0,6.6c-0.1,0.9-0.4,1.4-1.1,1.5l-0.5,0.1v0.6h7v-0.6l-0.9-0.1
		c-0.7-0.1-1-0.5-1.1-1.5c-0.1-1.4-0.2-4.3,0-6.1c0.3-0.6,2-1,3.5,0L33.2,43.8z"/>
	<path id="XMLID_00000036237726815419887350000012915172668807523770_" class="st0" d="M3.8,58.9H2.3v3H1.5v-3H0v-0.5h3.8V58.9z"/>
	<path id="XMLID_00000173136558317854068140000005197777151739179187_" class="st0" d="M6.3,61.9v-3.5h2c0.8,0,1.4,0.6,1.4,1.1
		c0,0.5-0.4,0.9-0.9,1l1.1,1.3H9.1l-1-1.2H7v1.2H6.3z M7,60.2h1.3c0.4,0,0.7-0.3,0.7-0.7c0-0.4-0.4-0.6-0.7-0.6H7V60.2z"/>
	<path id="XMLID_00000176735214117155101770000016644102572937298617_" class="st0" d="M12.2,61.9l1.9-3.5h0.6l1.9,3.5h-0.8
		l-0.5-0.9h-1.8L13,61.9H12.2z M14.4,59l-0.8,1.5h1.5L14.4,59z"/>
	<path id="XMLID_00000021095437003636199590000008475471046835890315_" class="st0" d="M19,58.4l1.4,2.8l1.4-2.8h0.8l-1.8,3.5h-0.6
		l-1.9-3.5H19z"/>
	<path id="XMLID_00000088827180344805940400000009601372667598843293_" class="st0" d="M28.4,61.4v0.5h-3.2v-3.5h3.1v0.5H26v1H28
		v0.5H26v1.1H28.4z"/>
	<path id="XMLID_00000106111757076449577730000000218518183326133678_" class="st0" d="M31.3,61.9v-3.5H32v3h2.5v0.5H31.3z"/>
	<path id="XMLID_00000168079022438793080560000014443453320604497536_" class="st0" d="M42,61.4c-0.4,0.3-0.8,0.5-1.3,0.5
		c-1.2,0-2.2-0.9-2.2-1.8c0-0.9,0.9-1.8,2.2-1.8c0.9,0,1.5,0.3,1.8,0.8l-0.6,0.3c-0.2-0.4-0.7-0.6-1.2-0.6c-0.9,0-1.4,0.6-1.4,1.3
		c0,0.7,0.6,1.3,1.5,1.3c0.5,0,0.9-0.2,1.3-0.5v-0.4h-1v-0.4h1.6v1.8H42V61.4z"/>
	<path id="XMLID_00000142159542099411802150000008583820199699645833_" class="st0" d="M48.8,60.1v-1.8h0.7v1.8c0,1-0.6,1.7-2,1.7
		c-1.5,0-2-0.8-2-1.7v-1.8h0.7v1.8c0,0.6,0.3,1.2,1.3,1.2C48.5,61.4,48.8,60.8,48.8,60.1z"/>
	<path id="XMLID_00000132804654219457863240000005441379674856270753_" class="st0" d="M52.6,61.9v-3.5h0.7v3.5H52.6z"/>
	<path id="XMLID_00000130649410676176447580000007189054113051319701_" class="st0" d="M56.4,61.9v-3.5h1.6c1.5,0,2.3,0.8,2.3,1.7
		c0,1.1-0.9,1.7-2.3,1.7H56.4z M58.1,58.9h-0.9v2.5h0.9c1,0,1.5-0.5,1.5-1.3C59.6,59.4,59,58.9,58.1,58.9z"/>
	<path id="XMLID_00000056385505896289139660000013563811547409868207_" class="st0" d="M66,61.4v0.5h-3.2v-3.5h3.1v0.5h-2.4v1h2.1
		v0.5h-2.1v1.1H66z"/>
	<g id="XMLID_00000014605900836843755990000004343305683536522399_">
		<path id="XMLID_00000073701768371002194340000008404922374013088671_" class="st0" d="M40.9,27.6l6,0l2,5.4l1.9-5.3l6,0l-4.9-3.8
			l1.9-5.6l-4.9,3.4l-5-3.3l1.9,5.6L40.9,27.6z"/>
		<path id="XMLID_00000118383532453159597120000014328898790695485334_" class="st0" d="M35.8,9.5l6,0l2,5.4l1.9-5.3l6,0l-4.9-3.8
			L48.7,0l-4.9,3.4l-5-3.3l1.9,5.6L35.8,9.5z"/>
		<path id="XMLID_00000132051925640654906150000003063269757051229585_" class="st0" d="M16.1,9.5l6,0l2,5.4L26,9.5l6,0l-4.9-3.8
			L29,0l-4.9,3.4l-5-3.3L21,5.6L16.1,9.5z"/>
		<path id="XMLID_00000053506281967555266980000015570657266579810730_" class="st0" d="M11.1,27.7l6,0l2,5.4l1.9-5.3l6,0L22,23.9
			l1.9-5.6L19,21.6l-5-3.3l1.9,5.6L11.1,27.7z"/>
	</g>
	<g>
		<path class="st0" d="M31,21.3h-2.5v-0.5l1.2-1.2c0.3-0.3,0.4-0.6,0.4-0.8c0-0.2,0-0.3-0.1-0.4c-0.1-0.1-0.2-0.1-0.3-0.1
			c-0.1,0-0.2,0.1-0.3,0.2c-0.1,0.1-0.1,0.2-0.1,0.4h-0.8c0-0.2,0.1-0.4,0.2-0.6c0.1-0.2,0.3-0.3,0.5-0.4c0.2-0.1,0.4-0.2,0.7-0.2
			c0.4,0,0.7,0.1,0.9,0.3c0.2,0.2,0.3,0.4,0.3,0.8c0,0.1,0,0.3-0.1,0.4c-0.1,0.1-0.1,0.3-0.2,0.4c-0.1,0.1-0.3,0.3-0.5,0.6l-0.5,0.5
			H31V21.3z"/>
		<path class="st0" d="M33.9,19.9c0,0.5-0.1,0.9-0.3,1.1c-0.2,0.3-0.5,0.4-0.9,0.4c-0.4,0-0.7-0.1-0.9-0.4c-0.2-0.3-0.3-0.6-0.3-1.1
			v-0.7c0-0.5,0.1-0.9,0.3-1.1s0.5-0.4,0.9-0.4c0.4,0,0.7,0.1,0.9,0.4c0.2,0.3,0.3,0.6,0.3,1.1V19.9z M33.1,19.1
			c0-0.3,0-0.4-0.1-0.6c-0.1-0.1-0.2-0.2-0.3-0.2c-0.1,0-0.2,0.1-0.3,0.2s-0.1,0.3-0.1,0.5V20c0,0.3,0,0.5,0.1,0.6
			c0.1,0.1,0.2,0.2,0.3,0.2c0.1,0,0.2-0.1,0.3-0.2c0.1-0.1,0.1-0.3,0.1-0.6V19.1z"/>
		<path class="st0" d="M36.9,21.3h-2.5v-0.5l1.2-1.2c0.3-0.3,0.4-0.6,0.4-0.8c0-0.2,0-0.3-0.1-0.4c-0.1-0.1-0.2-0.1-0.3-0.1
			c-0.1,0-0.2,0.1-0.3,0.2c-0.1,0.1-0.1,0.2-0.1,0.4h-0.8c0-0.2,0.1-0.4,0.2-0.6c0.1-0.2,0.3-0.3,0.5-0.4c0.2-0.1,0.4-0.2,0.7-0.2
			c0.4,0,0.7,0.1,0.9,0.3c0.2,0.2,0.3,0.4,0.3,0.8c0,0.1,0,0.3-0.1,0.4s-0.1,0.3-0.2,0.4c-0.1,0.1-0.3,0.3-0.5,0.6l-0.5,0.5h1.4
			V21.3z"/>
		<path class="st0" d="M38,19.2h0.4c0.3,0,0.5-0.2,0.5-0.5c0-0.1,0-0.2-0.1-0.3c-0.1-0.1-0.2-0.1-0.3-0.1c-0.1,0-0.2,0-0.3,0.1
			c-0.1,0.1-0.1,0.1-0.1,0.2h-0.8c0-0.2,0.1-0.4,0.2-0.5c0.1-0.1,0.3-0.3,0.4-0.3c0.2-0.1,0.4-0.1,0.6-0.1c0.4,0,0.7,0.1,0.9,0.3
			c0.2,0.2,0.3,0.4,0.3,0.8c0,0.2,0,0.3-0.1,0.4c-0.1,0.1-0.2,0.2-0.4,0.3c0.2,0.1,0.3,0.2,0.4,0.3c0.1,0.1,0.2,0.3,0.2,0.5
			c0,0.3-0.1,0.6-0.4,0.8c-0.2,0.2-0.6,0.3-1,0.3c-0.2,0-0.5,0-0.7-0.1c-0.2-0.1-0.4-0.2-0.5-0.4c-0.1-0.2-0.2-0.3-0.2-0.5H38
			c0,0.1,0,0.2,0.1,0.3c0.1,0.1,0.2,0.1,0.3,0.1c0.1,0,0.3,0,0.3-0.1c0.1-0.1,0.1-0.2,0.1-0.3c0-0.2,0-0.3-0.1-0.4
			c-0.1-0.1-0.2-0.1-0.4-0.1H38V19.2z"/>
	</g>
</g>
</svg>
