<?xml version="1.0" encoding="utf-8"?>
<!-- Generator: Adobe Illustrator 27.2.0, SVG Export Plug-In . SVG Version: 6.00 Build 0)  -->
<svg version="1.1" id="Layer_1" xmlns="http://www.w3.org/2000/svg" xmlns:xlink="http://www.w3.org/1999/xlink" x="0px" y="0px"
	 viewBox="0 0 66 61.9" style="enable-background:new 0 0 66 61.9;" xml:space="preserve">
<style type="text/css">
	.st0{display:none;fill:#20201F;}
	.st1{opacity:0.15;fill:#FFFFFF;}
	.st2{fill:#D1D3D4;}
</style>
<rect x="0" y="0" class="st0" width="66" height="61.9"/>
<g>
	<path class="st1" d="M61.2,31H50c0,9.4-7.2,17.1-16.1,17.6l0,0c-0.1,0-0.3,0-0.4,0c0,0-0.1,0-0.1,0c-0.1,0-0.2,0-0.3,0c0,0,0,0,0,0
		l0,0c-2.3,0-4.5-0.5-6.6-1.4c-2-0.9-3.8-2.2-5.4-3.8c-1.2-1.3-2.2-2.7-3-4.2c-1.2-2.5-2-5.2-2-8.2H4.8v0
		c0,16.1,12.7,29.3,28.2,29.3C48.5,60.3,61.2,47.1,61.2,31L61.2,31z"/>
	<g>
		<path class="st2" d="M62.1,37.1L62.1,37.1c0.4-1.9,0.6-3.9,0.6-5.9l0-0.3l0-0.3C62.6,13.7,49.3,0,33,0l0,0l0,0h0
			C16.7,0,3.5,13.7,3.3,30.6l0,0.3l0,0.3c0,2,0.2,3.9,0.6,5.8l0,0.1l0,0.1c0.4,2,1,3.8,1.7,5.6l0,0.1l0,0.1
			C10.2,54.1,20.7,61.8,33,61.8h0l0,0l0,0c12.3,0,22.8-7.8,27.3-18.8l0-0.1l0-0.1C61.1,41,61.7,39.1,62.1,37.1L62.1,37.1z
			 M61.6,36.6C61.6,36.6,61.6,36.7,61.6,36.6C59,50.6,47.2,61.2,33,61.2C18.8,61.2,7,50.6,4.4,36.7v0c0-0.1,0-0.1,0-0.2
			c-0.3-1.8-0.5-3.7-0.5-5.5c0-1.4,0.1-2.8,0.3-4.1c0,0,0-0.1,0-0.1c0,0,0,0,0,0C6.1,12,18.4,0.6,33,0.6c14.6,0,26.8,11.3,28.8,26
			c0,0,0,0.1,0,0.1c0,0,0,0,0,0c0.2,1.4,0.3,2.8,0.3,4.2C62.2,32.8,62,34.7,61.6,36.6C61.7,36.5,61.7,36.6,61.6,36.6z"/>
		<path class="st2" d="M33,22.6C33,22.6,33,22.6,33,22.6C33,22.7,33,22.6,33,22.6z"/>
		<path class="st2" d="M37.4,37.5L37.4,37.5C37.4,37.6,37.4,37.6,37.4,37.5L37.4,37.5c0,0.1,0,0.1,0,0.1v0c0,0,0,0,0,0c0,0,0,0,0,0
			c0,0,0,0,0,0c0,0,0,0,0,0c0,0,0,0,0,0l0,0c0,0,0,0,0,0l0,0c0,0,0,0,0,0c0,0,0,0,0,0c0,0,0,0,0,0l0,0c0,0,0,0,0,0c0,0,0,0,0,0
			c0,0,0,0,0,0l0,0c0,0,0,0,0,0l0,0c0,0,0,0,0,0l0,0c0,0,0,0,0,0l0,0c0,0,0,0,0.1,0c0,0,0,0,0,0c0,0,0,0,0,0l0,0c0,0,0,0,0.1,0l0,0
			c0,0,0,0,0.1,0c0,0,0,0,0,0c0,0,0,0,0.1,0l0,0c0,0,0,0,0.1,0c0,0,0,0,0,0c0,0,0,0,0.1,0h0c0,0,0,0,0.1,0h0c0,0,0,0,0.1,0h0
			c0,0,0,0,0.1,0h0c0,0,0,0,0,0h0c0,0,0,0,0.1,0c0,0,0.1,0,0.1,0c0,0,0,0,0,0c0,0,0,0,0.1,0c0,0,0,0,0,0c0,0,0,0,0.1,0c0,0,0,0,0,0
			c0,0,0,0,0.1,0c0,0,0,0,0,0c0,0,0,0,0.1,0c0,0,0,0,0,0c0,0,0,0,0,0s0,0,0,0s0,0,0,0s0,0,0,0c0,0,0,0,0,0l0,0c0,0,0,0,0.1-0.1
			c0,0,0,0,0,0c0,0,0,0,0,0c0,0,0,0,0,0c0,0,0,0,0-0.1c0,0,0,0,0,0c0,0,0-0.1,0-0.1v0c0,0,0-0.1,0-0.1c0,0,0,0,0,0c0,0,0,0,0-0.1
			c0,0,0,0,0,0c0,0,0-0.1,0-0.1c0,0,0,0,0,0c0,0,0-0.1,0-0.1c0,0,0.1,0,0.1,0c0,0,0,0,0,0c0,0,0.1,0,0.1,0h0c0,0,0.1,0,0.1,0
			c0,0,0,0,0,0c0,0,0.1,0,0.1,0c0,0,0,0,0,0c0,0,0.1,0,0.1,0c0,0,0,0,0,0c0,0,0,0,0.1,0l0,0c0,0,0,0,0.1,0l0,0c0,0,0,0,0,0l0,0
			c0,0,0,0,0.1,0l0,0c0,0,0,0,0,0l0,0c0,0,0,0,0,0c0,0,0,0,0,0c0,0,0,0,0,0c0,0,0,0,0,0c0,0,0,0,0,0c0,0,0,0,0,0c0,0,0,0,0,0v0
			c0,0,0,0,0,0l0,0c0,0,0,0,0,0v0c0,0,0,0,0,0l0,0c0,0,0,0,0,0v0c0,0,0,0,0,0v0c0,0,0,0,0,0v0c0,0,0,0,0,0v0c0,0,0,0,0,0v0
			c0,0,0,0,0,0v0c0,0,0,0,0,0c0,0,0,0,0,0c0,0,0,0,0,0c0,0,0,0,0,0c0,0,0,0,0,0c0,0,0,0,0,0c0,0,0,0,0,0l0,0c0,0,0,0,0,0
			c0,0,0,0,0,0s0,0,0,0l0,0c0,0,0,0,0,0l0,0c0,0,0,0,0,0l0,0c0,0,0,0,0,0l0,0c0,0,0,0,0,0l0,0c0,0,0,0,0,0c0,0,0,0,0,0
			c0,0,0,0-0.1,0l0,0c0,0,0,0,0,0h0c0,0,0,0-0.1,0c0,0,0,0,0,0c0,0,0,0,0,0h0c0,0,0,0-0.1,0h0c0,0,0,0,0,0h0c0,0,0,0-0.1,0h0
			c0,0,0,0,0,0h0c0,0,0,0-0.1,0h0c0,0,0,0,0,0s0,0-0.1,0c0,0,0,0,0,0c0,0,0,0-0.1,0h0c0,0,0,0-0.1,0c0,0,0,0,0,0s0,0,0,0
			c0,0,0,0,0,0c0,0,0,0-0.1,0c0,0,0,0,0,0c0,0,0,0-0.1,0c0,0,0,0,0,0c0,0,0,0,0,0c0,0,0,0,0,0s0,0,0,0c0,0,0,0,0,0c0,0,0,0-0.1,0.1
			c0,0,0,0,0,0c0,0,0,0,0,0.1c0,0,0,0,0,0c0,0,0,0,0,0.1c0,0,0,0,0,0c0,0,0,0,0,0.1c0,0,0,0,0,0c0,0,0,0.1,0,0.1c0,0,0,0,0,0
			c0,0,0,0.1,0,0.1c0,0,0,0,0,0c0,0,0,0.1,0,0.1c0,0,0,0,0,0c0,0,0,0.1,0,0.2c0,0-0.1,0-0.1,0c0,0,0,0,0,0c0,0-0.1,0-0.1,0h0
			c0,0-0.1,0-0.1,0c0,0,0,0,0,0c0,0-0.1,0-0.1,0c0,0,0,0,0,0c0,0-0.1,0-0.1,0c0,0,0,0,0,0c0,0,0,0-0.1,0c0,0,0,0,0,0c0,0,0,0-0.1,0
			l0,0c0,0,0,0-0.1,0l0,0c0,0,0,0-0.1,0l0,0c0,0,0,0,0,0l0,0c0,0,0,0,0,0l0,0c0,0,0,0,0,0l0,0c0,0,0,0,0,0l0,0c0,0,0,0,0,0
			c0,0,0,0,0,0c0,0,0,0,0,0v0c0,0,0,0,0,0v0c0,0,0,0,0,0L37.4,37.5C37.3,37.5,37.3,37.5,37.4,37.5L37.4,37.5
			C37.4,37.5,37.4,37.5,37.4,37.5z"/>
		<path class="st2" d="M28.8,37.4C28.8,37.4,28.8,37.4,28.8,37.4L28.8,37.4C28.8,37.4,28.8,37.3,28.8,37.4l0-0.1c0,0,0,0,0,0
			c0,0,0,0,0,0c0,0,0,0,0,0c0,0,0,0,0,0c0,0,0,0,0,0l0,0c0,0,0,0,0,0c0,0,0,0,0,0c0,0,0,0,0,0l0,0c0,0,0,0,0,0l0,0c0,0,0,0-0.1,0
			l0,0c0,0,0,0-0.1,0l0,0c0,0,0,0-0.1,0c0,0,0,0,0,0c0,0,0,0-0.1,0c0,0,0,0,0,0c0,0-0.1,0-0.1,0c0,0,0,0,0,0c0,0-0.1,0-0.1,0
			c0,0,0,0,0,0c0,0-0.1,0-0.1,0h0c0,0-0.1,0-0.1,0c0,0,0,0,0,0c0,0-0.1,0-0.1,0l0,0c0,0,0-0.1,0-0.2c0,0,0,0,0,0c0,0,0-0.1,0-0.1
			c0,0,0,0,0,0c0,0,0-0.1,0-0.1c0,0,0,0,0,0c0,0,0-0.1,0-0.1c0,0,0,0,0,0c0,0,0-0.1,0-0.1c0,0,0,0,0,0c0,0,0,0,0-0.1c0,0,0,0,0,0
			c0,0,0,0,0-0.1c0,0,0,0,0,0c0,0,0,0-0.1-0.1c0,0,0,0,0,0c0,0,0,0,0,0c0,0,0,0,0,0s0,0,0,0c0,0,0,0,0,0c0,0,0,0-0.1,0c0,0,0,0,0,0
			c0,0,0,0-0.1,0c0,0,0,0,0,0c0,0,0,0,0,0c0,0,0,0,0,0c0,0,0,0-0.1,0h0c0,0,0,0-0.1,0c0,0,0,0,0,0c0,0,0,0-0.1,0c0,0,0,0,0,0h0
			c0,0,0,0-0.1,0h0c0,0,0,0,0,0h0c0,0,0,0-0.1,0h0c0,0,0,0,0,0h0c0,0,0,0-0.1,0h0c0,0,0,0,0,0c0,0,0,0,0,0c0,0,0,0-0.1,0h0
			c0,0,0,0,0,0c0,0,0,0,0,0c0,0,0,0-0.1,0l0,0c0,0,0,0,0,0l0,0c0,0,0,0,0,0l0,0c0,0,0,0,0,0l0,0c0,0,0,0,0,0l0,0c0,0,0,0,0,0l0,0
			c0,0,0,0,0,0c0,0,0,0,0,0c0,0,0,0,0,0c0,0,0,0,0,0c0,0,0,0,0,0c0,0,0,0,0,0c0,0,0,0,0,0c0,0,0,0,0,0c0,0,0,0,0,0v0c0,0,0,0,0,0v0
			c0,0,0,0,0,0v0c0,0,0,0,0,0v0c0,0,0,0,0,0v0c0,0,0,0,0,0c0,0,0,0,0,0c0,0,0,0,0,0v0c0,0,0,0,0,0l0,0c0,0,0,0,0,0v0c0,0,0,0,0,0
			l0,0c0,0,0,0,0,0v0c0,0,0,0,0,0c0,0,0,0,0,0c0,0,0,0,0,0c0,0,0,0,0,0c0,0,0,0,0,0v0c0,0,0,0,0,0l0,0c0,0,0,0,0,0l0,0
			c0,0,0,0,0.1,0l0,0c0,0,0,0,0,0l0,0c0,0,0,0,0.1,0l0,0c0,0,0,0,0.1,0c0,0,0,0,0,0c0,0,0.1,0,0.1,0c0,0,0,0,0,0c0,0,0.1,0,0.1,0
			c0,0,0,0,0,0c0,0,0.1,0,0.1,0h0c0,0,0.1,0,0.1,0c0,0,0,0,0,0c0,0,0.1,0,0.1,0c0,0,0,0,0,0c0,0,0,0.1,0,0.1c0,0,0,0,0,0
			c0,0,0,0.1,0,0.1c0,0,0,0,0,0c0,0,0,0,0,0.1c0,0,0,0,0,0c0,0,0,0.1,0,0.1v0c0,0,0,0.1,0,0.1c0,0,0,0,0,0c0,0,0,0,0,0.1
			c0,0,0,0,0,0c0,0,0,0,0,0c0,0,0,0,0,0c0,0,0,0,0.1,0.1l0,0c0,0,0,0,0,0c0,0,0,0,0,0s0,0,0,0c0,0,0,0,0,0s0,0,0,0c0,0,0,0,0,0
			c0,0,0,0,0.1,0c0,0,0,0,0,0c0,0,0,0,0.1,0c0,0,0,0,0,0c0,0,0,0,0.1,0c0,0,0,0,0,0c0,0,0,0,0.1,0c0,0,0,0,0,0c0,0,0.1,0,0.1,0
			c0,0,0,0,0.1,0h0c0,0,0,0,0,0h0c0,0,0,0,0.1,0h0c0,0,0,0,0,0h0c0,0,0,0,0.1,0h0c0,0,0,0,0.1,0c0,0,0,0,0,0c0,0,0,0,0.1,0
			c0,0,0,0,0,0c0,0,0,0,0.1,0l0,0c0,0,0,0,0.1,0c0,0,0,0,0,0c0,0,0,0,0.1,0l0,0c0,0,0,0,0,0c0,0,0,0,0,0c0,0,0,0,0.1,0l0,0
			c0,0,0,0,0,0l0,0c0,0,0,0,0,0l0,0c0,0,0,0,0,0l0,0c0,0,0,0,0,0l0,0c0,0,0,0,0,0l0,0c0,0,0,0,0,0c0,0,0,0,0,0c0,0,0,0,0,0
			c0,0,0,0,0,0c0,0,0,0,0,0c0,0,0,0,0,0c0,0,0,0,0,0c0,0,0,0,0,0s0,0,0,0v0c0,0,0,0,0,0c0,0,0,0,0,0s0,0,0,0v0c0,0,0,0,0,0v0
			C28.8,37.5,28.8,37.5,28.8,37.4L28.8,37.4C28.8,37.5,28.8,37.5,28.8,37.4C28.8,37.4,28.8,37.4,28.8,37.4z"/>
		<path class="st2" d="M29.7,24.5l2.6,0.4l0.2,0l-0.2,0.3l-0.8,1.2l0.8-0.5l0.7-0.4l0.1,0.5l0.3,2.3l0.3-2.3l0.1-0.5l0.8,0.5
			l0.7,0.5l-0.5-0.7L34.2,25l0.5-0.1l2.3-0.3l-2.3-0.3l-0.5,0l0.4-0.7l0.6-0.9l-1.2,0.9l-0.2,0.2l0-0.2l-0.4-2.8L33,23.6l0,0.2
			l-0.2-0.2l-1.2-0.9l0.8,1.2l0.2,0.4l-0.2,0L29.7,24.5z M33.3,23.8c0.4,0,0.7,0.3,0.7,0.7s-0.3,0.7-0.7,0.7c-0.4,0-0.7-0.3-0.7-0.7
			C32.6,24.1,33,23.8,33.3,23.8z"/>
		<path class="st2" d="M21.2,18.6c-1.5,1.6-2.7,3.5-3.6,5.5c-0.9,2.1-1.3,4.4-1.3,6.8c0,2.3,0.4,4.6,1.3,6.8c0.8,2.1,2,3.9,3.6,5.5
			c1.5,1.6,3.3,2.8,5.3,3.7c2.1,0.9,4.2,1.4,6.5,1.4c2.2,0,4.4-0.5,6.5-1.4c2-0.9,3.8-2.1,5.3-3.7c1.5-1.6,2.7-3.5,3.6-5.5
			c0.9-2.1,1.3-4.4,1.3-6.8c0-2.3-0.4-4.6-1.3-6.8c-0.8-2.1-2-3.9-3.6-5.5c-1.5-1.6-3.3-2.8-5.3-3.7c-2.1-0.9-4.2-1.4-6.5-1.4
			c-2.2,0-4.4,0.5-6.5,1.4C24.5,15.8,22.8,17,21.2,18.6z M20.9,20.6L20.9,20.6l-0.7,2.3L19.7,24C19.5,22.7,20.2,21.5,20.9,20.6z
			 M17.5,33.9l0.6,1l1.1,1.5l0.8,1.5C18.9,37.1,17.7,35.7,17.5,33.9z M18.6,37.6L18.6,37.6c0.5,0.6,1.2,0.8,1.7,1.3l1.2,1.2l0.7,0.7
			l-1.3-0.7l-0.9-0.8C19.4,38.9,19,38.3,18.6,37.6z M47.3,34.6l0.5-1.9c0.2-0.8,0.9-1.4,1-2.3C48.9,32,48.1,33.5,47.3,34.6z
			 M46.3,24.1c-0.1-0.2-0.2-0.5-0.3-0.7c-0.6-0.7-0.8-1.7-1-2.6C45.8,21.5,46.3,22.7,46.3,24.1z M34.2,15.7l1.4,0.2l2.4,0.7
			l-1.3-0.9c-0.1-0.1-0.2-0.2-0.3-0.3L38,16l0.9,0.7c0.1,0.1,0.1,0.1,0.2,0.2L39,17l1.7,1c0.4,0.2,0.8,0.5,1.1,0.7
			c-0.1-0.3-0.3-0.4-0.5-0.5c-0.7-0.3-1.2-1.2-1.8-1.6c1,0.2,2.1,1,2.5,2.3l1.4,1.2l0.9,1h0l-0.2-0.4l-0.9-1.2l-0.7-1.3
			c1,0.5,1.6,1.9,2.1,3.1l1.2,1.8l0.9,1.8l0.5,1.6c0.1,0.2,0.1,0.5,0.2,0.7l0-0.5l-0.3-1.5L47,23.9c0-0.1,0-0.2-0.1-0.3
			c0.6,0.9,0.8,2.2,0.6,3.4c-0.1,0.3-0.1,0.5-0.2,0.8l0.2,1.7c0,0.4,0.1,0.9,0.1,1.3c0.3-0.5,0-1.3,0.1-1.9c0-0.8,0.3-1.4,0.3-2.2
			c0.3,0.5,0.3,1.3,0.2,1.9c-0.1,0.9-0.3,1.8-0.7,2.5l-0.1,1l-0.3,1.6l-0.4,1.8L46,37.6c-0.1,0.1-0.1,0.2-0.1,0.3
			c0.2,0,0.4-0.3,0.5-0.6l0.7-1.3l1.3-1.9l0.2-0.4c0,1.6-1,2.8-1.9,3.7l-1,0.8l-1.1,1.6L43.6,41l0,0c0.2,0,0.5-0.2,0.7-0.4l1.4-1.6
			l1.3-1l0.7-0.6l0,0.1l-0.8,1.2L46,39.5l-1.1,0.8L43,41.4l-1.3,1.1c-0.1,0.2-0.3,0.2-0.5,0.4l0.1,0.1l0.8-0.4l1.7-1l1.6-0.6l-1,0.9
			l-0.9,0.6l-1.3,0.4l-1.5,0.3l-1.8,1.1l-0.5,0.2c0.4,0.1,0.8-0.4,1.3-0.4l1.5-0.4c0.4,0,0.7-0.2,1.1-0.3l-1.1,0.7l-1,0.3L39,44.6
			l-1.2,0l-1.9,0.5v0.1l1.3,0H39c0.3,0.1,0.7,0,1.1,0c-0.5,0.3-1,0.5-1.5,0.6l-1.2,0L36,45.4l-0.6-0.2l-0.6,0.1l1.2-0.3l0.6-0.4
			l1.2-1.3l1-0.8c0.3-0.2,0.6-0.4,0.9-0.5c-0.5,0.5-1,1.2-1.5,1.7l-1,0.8c-0.3,0.2-0.6,0.2-0.9,0.4l0,0l1.8-0.5
			c0.4-0.1,0.8-0.3,1.1-0.7l1.1-1.8l0.9-1l0.5-0.3l-1.1,1.8c-0.4,0.6-1,1-1.5,1.5h0.1l2-1.2c0.6-0.2,0.7-1.1,0.8-1.7
			c0.3-0.8,0.8-1.8,1.4-2.2c-0.6,1.1-0.7,2.6-1.6,3.4v0l0.1,0l1.3-1.1c0.3-0.2,0.5-0.6,0.6-1l0.3-1.6c0.2-0.9,0.6-1.7,1.2-2.3
			l-0.5,2.2c-0.2,0.7-0.5,1.3-0.8,1.9l0.4-0.5l1.2-1.6l0.1-0.7l-0.1-2c0-0.7,0.2-1.4,0.5-1.9l0.1,1.8c0,0.9-0.3,1.6-0.5,2.4l0,0.1
			l0.7-1.6c0.2-0.5,0.5-1,0.3-1.7l-0.4-1.6c0-0.6-0.1-1.3,0.1-1.9c0.3,1.1,0.7,2.3,0.4,3.6l0,0.1l0.3-1.4l0.2-1.8l0-1.5l-0.1-1.1
			c-0.6-0.8-1.3-1.8-1.6-2.9l-0.3-0.8c0.8,0.8,1.5,2,1.8,3.3l0,0l-0.2-1l-0.4-1.6l-0.2-0.2l-1.2-1c-0.4-0.5-0.8-1.1-1.2-1.7
			c0.9,0.3,1.6,1.4,2.3,2.3c-0.3-0.8-0.6-1.5-1-2.1c-1-0.6-2.1-1.1-2.8-2.3l1.4,0.8l1.1,1l0.2,0.2l-0.1-0.3l-0.8-1.1l-0.6-0.6
			l-1.4-0.5l-0.9-0.7c-0.3-0.2-0.4-0.4-0.7-0.5c0.6,0.1,1.3,0.3,1.9,0.8l1,0.8l0,0l-0.3-0.4l-1.2-1.1c-0.3-0.2-0.6-0.7-1-0.5
			L40,18.6l-0.8-0.4l-1.1-0.6l1,0.1l1.6,0.6c0.2,0.1,0.5,0.3,0.7,0.3l-0.2-0.2l-1.4-0.9L38.9,17l-0.1,0.1l-1.7,0.1L36,17l-0.6-0.2
			l0.2-0.1l1.6-0.1l1.1,0.2l0.5,0.1l0-0.1L37,16.3l-0.8-0.1L35,16.3l-0.9-0.2l-1.1-0.6l0,0L34.2,15.7z M36.4,35.7L33.1,33l-3.3,2.7
			c0.4,0.5,0.2,0.8,0,1.1c0,0,0,0,0.1,0.1c0,0,0,0,0,0c0,0,0,0,0,0.1c0,0,0,0,0,0c0,0,0,0,0,0.1c0,0,0,0,0,0c0,0,0,0,0,0.1
			c0,0,0,0,0,0c0,0,0,0.1,0,0.1l0,0c0,0,0,0.1,0,0.1c0,0,0,0,0,0c0,0,0,0,0,0.1c0,0,0,0,0,0c0,0,0,0.1,0,0.1c0,0,0,0,0,0
			c0,0,0,0,0,0.1c0,0,0,0,0,0c0,0,0,0.1,0,0.1v0c0,0,0,0.1,0,0.1c0,0,0,0,0,0c0,0,0,0.1,0,0.1c0,0,0,0,0,0c0,0,0,0.1,0,0.1
			c0,0,0,0,0,0c0,0,0,0,0,0.1c0,0,0,0,0,0c0,0,0,0.1,0,0.1c0,0,0,0,0,0c0,0,0,0.1,0,0.1c0,0,0,0,0,0c0,0,0,0,0,0.1c0,0,0,0,0,0
			c0,0,0,0.1-0.1,0.1c0,0,0,0,0,0c0,0,0,0-0.1,0.1c0,0,0,0,0,0c0,0-0.1,0.1-0.1,0.1l0,0c0,0,0,0-0.1,0.1c0,0,0,0,0,0
			c0,0,0,0-0.1,0.1c0,0,0,0,0,0c0,0-0.1,0-0.1,0.1c0,0,0,0,0,0c0,0-0.1,0-0.1,0.1c0,0,0,0,0,0c0,0-0.1,0-0.1,0.1c0,0,0,0,0,0
			c0,0-0.1,0-0.1,0c0,0,0,0,0,0c0,0-0.1,0-0.1,0c0,0,0,0,0,0c0,0-0.1,0-0.1,0c0,0,0,0,0,0c0,0-0.1,0-0.1,0c0,0,0,0,0,0
			c0,0-0.1,0-0.1,0h0c0,0-0.1,0-0.1,0c0,0,0,0,0,0c0,0-0.1,0-0.1,0c0,0,0,0,0,0h0h0c0,0-0.1,0-0.1,0h0c0,0-0.1,0-0.1,0c0,0,0,0,0,0
			c0,0-0.1,0-0.1,0c0,0,0,0,0,0c0,0-0.1,0-0.1,0h0c0,0-0.1,0-0.1,0c0,0,0,0,0,0c0,0-0.1,0-0.1,0c0,0,0,0,0,0c0,0-0.1,0-0.1,0h0
			c0,0-0.1,0-0.1,0c0,0,0,0,0,0c0,0-0.1,0-0.1,0c0,0,0,0,0,0c0,0-0.1,0-0.1-0.1c0,0,0,0,0,0c0,0-0.1,0-0.1-0.1c0,0,0,0,0,0
			c0,0-0.1,0-0.1-0.1c0,0,0,0,0,0c0,0-0.1-0.1-0.1-0.1l0,0c0,0-0.1-0.1-0.1-0.1c0,0,0,0,0,0c0,0-0.1-0.1-0.1-0.1c0,0,0,0,0,0
			c0,0-0.1-0.1-0.1-0.1l0,0c0,0-0.1-0.1-0.1-0.1c0,0,0,0,0,0c0,0-0.1-0.1-0.1-0.1c0,0,0,0,0,0c0,0-0.1-0.1-0.1-0.1s-0.1-0.1-0.1-0.2
			c0,0,0,0,0,0c0,0-0.1-0.1-0.1-0.1c0,0,0,0,0,0c0,0-0.1-0.1-0.1-0.1c0,0,0,0,0,0c0,0-0.1-0.1-0.1-0.2c0,0,0,0,0,0
			c0,0,0-0.1-0.1-0.1c0,0,0,0,0,0c0,0,0-0.1-0.1-0.1c0,0,0,0,0,0c0,0,0-0.1-0.1-0.1c0,0,0,0,0,0c0,0,0-0.1,0-0.1c0,0,0,0,0,0
			c0,0,0-0.1,0-0.1c0,0,0,0,0,0c0,0,0-0.1,0-0.1c0,0,0,0,0,0c0,0,0-0.1,0-0.1c0,0,0,0,0,0c0,0,0-0.1,0-0.1c0,0,0,0,0,0
			c0,0,0-0.1,0-0.1c0,0,0,0,0,0c0,0,0-0.1,0-0.1c0,0,0,0,0,0c0,0,0-0.1,0-0.1c0,0,0,0,0,0c0,0,0-0.1,0-0.1v0c0,0,0-0.1,0-0.1
			c0,0,0,0,0,0c0,0,0-0.1,0-0.1v0c0,0,0-0.1,0-0.1c0,0,0,0,0,0c0,0,0-0.1,0-0.1c0,0,0,0,0,0c0,0,0,0,0-0.1v0c0-0.1,0.1-0.1,0.1-0.2
			c0,0,0,0,0,0c0,0,0,0,0-0.1c0,0,0,0,0,0c0,0,0.1-0.1,0.1-0.2l0,0c0,0,0,0,0.1-0.1l0,0c0,0,0.1-0.1,0.1-0.1l0,0c0,0,0,0,0.1-0.1
			l0,0c0,0,0.1-0.1,0.1-0.1c0,0,0,0,0,0c0,0,0,0,0.1,0l0,0c0.1,0,0.1-0.1,0.2-0.1c0,0,0,0,0,0c0,0,0.1,0,0.1,0c0,0,0,0,0,0
			c0.1,0,0.1,0,0.2-0.1h0c0,0,0.1,0,0.1,0c0,0,0,0,0,0c0,0,0.1,0,0.1,0l0,0c0,0,0.1,0,0.1,0h0c0,0,0.1,0,0.1,0c0,0,0,0,0,0
			c0,0,0.1,0,0.1,0h0c0,0,0.1,0,0.1,0h0c0,0,0.1,0,0.1,0c0,0,0,0,0,0c0,0,0,0,0.1,0c0,0,0,0,0,0c0,0,0.1,0,0.1,0c0,0,0,0,0,0
			c0,0,0,0,0.1,0c0,0,0,0,0,0c0,0,0,0,0,0s0,0,0,0s0,0,0,0s0,0,0,0s0,0,0,0s0,0,0,0s0,0,0,0s0,0,0,0s0,0,0,0c0,0,0,0,0,0
			c0,0,0,0,0,0s0,0,0,0s0,0,0,0s0,0,0,0s0,0,0,0s0,0,0,0s0,0,0,0s0,0,0,0c0,0,0,0,0,0c0,0,0,0,0,0c0,0,0,0,0,0c0,0,0,0,0,0s0,0,0,0
			s0,0,0,0s0,0,0,0s0,0,0,0s0,0,0,0s0,0,0,0s0,0,0,0s0,0,0,0s0,0,0,0s0,0,0,0c0,0,0,0,0,0c0,0,0,0,0.1,0c0,0,0,0,0,0c0,0,0,0,0,0
			c0,0,0,0,0,0s0,0,0,0s0,0,0,0c0,0,0,0,0,0s0,0,0,0c0,0,0,0,0,0c0,0,0,0,0,0c0,0,0,0,0.1,0l0,0c0,0,0,0,0.1,0c0,0,0,0,0,0h0
			c0,0,0,0,0.1,0l0,0c0,0,0,0,0.1,0h0c0,0,0,0,0.1,0h0c0,0,0,0,0.1,0c0,0,0,0,0,0c0,0,0,0,0.1,0l0,0c0,0,0,0,0.1,0l0,0
			c0,0,0,0,0.1,0l0,0c0,0,0,0,0.1,0.1l0,0c0,0,0,0,0.1,0.1l0,0l3-2.6l-2.7-2.2v-0.4l-0.3-0.2L29,29.6l-0.6-0.5l0.2-0.3L28,28.4
			l-0.6,0.8l-0.2-0.2l-0.3,0.4l0.2,0.2l-0.4,0.5l-0.2-0.2l0.2-0.2l-0.3-0.2l0.3-0.4l-0.2-0.2l-0.2,0.3l-0.4-0.3l0.2-0.3l-0.3-0.2
			l-0.3,0.4l-0.3-0.2l-0.2,0.2l-0.2-0.2l0.4-0.5l0.2,0.2l0.3-0.4l-0.2-0.2l0.6-0.8l-0.6-0.5c0,0,0,0-0.1,0l0,0c0,0,0,0,0,0
			c0,0,0,0,0,0c0,0,0,0,0,0c0,0,0,0,0,0c0,0,0,0,0,0v0c0,0,0,0,0,0v0c0,0,0,0,0,0v0c0,0,0,0,0,0c0,0,0,0,0,0c0,0,0,0,0,0v0
			c0,0,0,0,0,0l0,0c0,0,0,0,0,0c0,0,0,0,0,0c0,0,0,0,0,0l0,0c0,0,0,0,0,0c0,0,0,0,0,0c0,0,0,0,0,0c0,0,0,0,0,0c0,0,0,0,0,0h0
			c0,0,0,0,0.1,0h0c0,0,0,0,0,0c0,0,0,0,0,0l0,0h0c0,0,0,0,0,0h0c0,0,0,0,0,0s0,0,0,0s0,0,0,0c0,0,0,0,0,0c0,0,0,0,0,0c0,0,0,0,0,0
			c0,0,0,0,0,0c0,0,0,0,0,0c0,0,0,0,0,0l0,0c0,0,0,0,0,0l3.1,2.5l0.2-0.3l0.6,0.5l-0.2,0.3l0.3,0.2l0.4-0.1l2.9,2.5l2.9-2.5l0,0l0,0
			l0.4,0.1l0.3-0.2l-0.2-0.3l0.6-0.5l0,0l0,0l0.2,0.3l3.1-2.5c0,0,0,0,0,0c0,0,0,0,0,0c0,0,0,0,0,0l0,0c0,0,0,0,0,0c0,0,0,0,0,0
			c0,0,0,0,0,0c0,0,0,0,0,0c0,0,0,0,0,0c0,0,0,0,0,0c0,0,0,0,0,0h0c0,0,0,0,0,0h0l0,0c0,0,0,0,0,0c0,0,0,0,0,0h0c0,0,0,0,0.1,0h0
			c0,0,0,0,0,0c0,0,0,0,0,0c0,0,0,0,0,0c0,0,0,0,0,0s0,0,0,0l0,0c0,0,0,0,0,0c0,0,0,0,0,0c0,0,0,0,0,0.1v0c0,0,0,0,0,0l0,0
			c0,0,0,0,0,0v0c0,0,0,0,0,0v0c0,0,0,0,0,0v0c0,0,0,0,0,0c0,0,0,0,0,0c0,0,0,0,0,0c0,0,0,0,0,0c0,0,0,0,0,0l0,0c0,0,0,0-0.1,0
			l-0.6,0.5l0.6,0.8l-0.2,0.2l0.3,0.4l0.2-0.2l0,0l0,0l0.4,0.5l-0.2,0.2l0,0l0,0l-0.2-0.2l-0.3,0.2l0,0l0,0l-0.3-0.4L40,28.4
			l0.2,0.3L39.9,29l0,0l0,0l-0.2-0.3l-0.2,0.2l0.3,0.4l-0.3,0.2l0.2,0.2L39.4,30l0,0l0,0l-0.4-0.5l0.2-0.2l-0.3-0.4l-0.2,0.2l0,0
			l0,0l-0.6-0.8l-0.6,0.5l0.2,0.3l-0.6,0.5l0,0l0,0L37,29.3l-0.3,0.2v0.4L34,32.2l3,2.6c0,0,0-0.1,0.1-0.1l0,0c0,0,0,0,0.1-0.1l0,0
			c0,0,0,0,0.1,0l0,0c0,0,0,0,0.1,0l0,0c0,0,0,0,0.1,0h0c0,0,0,0,0.1,0h0c0,0,0,0,0.1,0h0c0,0,0,0,0.1,0l0,0c0,0,0,0,0.1,0h0
			c0,0,0,0,0,0c0,0,0,0,0.1,0l0,0c0,0,0,0,0.1,0c0,0,0,0,0,0s0,0,0,0c0,0,0,0,0,0c0,0,0,0,0,0s0,0,0,0c0,0,0,0,0,0s0,0,0,0s0,0,0,0
			c0,0,0,0,0,0c0,0,0,0,0.1,0c0,0,0,0,0,0c0,0,0,0,0,0s0,0,0,0s0,0,0,0s0,0,0,0s0,0,0,0s0,0,0,0s0,0,0,0s0,0,0,0s0,0,0,0s0,0,0,0
			s0,0,0,0s0,0,0,0s0,0,0,0c0,0,0,0,0,0s0,0,0,0c0,0,0,0,0,0s0,0,0,0s0,0,0,0c0,0,0,0,0,0s0,0,0,0c0,0,0,0,0,0s0,0,0,0c0,0,0,0,0,0
			c0,0,0,0,0,0c0,0,0,0,0,0s0,0,0,0s0,0,0,0s0,0,0,0s0,0,0,0s0,0,0,0s0,0,0,0s0,0,0,0c0,0,0,0,0.1,0c0,0,0,0,0,0c0,0,0.1,0,0.1,0
			c0,0,0,0,0,0c0,0,0,0,0.1,0c0,0,0,0,0,0c0,0,0,0,0.1,0c0,0,0,0,0,0c0,0,0.1,0,0.1,0c0,0,0,0,0,0c0,0,0,0,0.1,0c0,0,0,0,0,0
			c0,0,0,0,0.1,0c0,0,0,0,0,0c0,0,0.1,0,0.1,0h0c0,0,0,0,0.1,0c0,0,0,0,0,0c0,0,0,0,0.1,0c0,0,0,0,0,0c0,0,0.1,0,0.1,0c0,0,0,0,0,0
			c0,0,0.1,0,0.1,0c0,0,0,0,0,0c0,0,0,0,0.1,0c0,0,0,0,0,0c0,0,0.1,0,0.1,0l0,0c0,0,0.1,0,0.1,0c0,0,0,0,0,0c0,0,0,0,0.1,0
			c0,0,0,0,0,0c0.1,0,0.1,0.1,0.1,0.1l0,0c0,0,0,0,0.1,0l0,0c0,0,0.1,0.1,0.1,0.1l0,0c0,0,0,0,0,0.1c0,0,0,0,0,0
			c0,0,0.1,0.1,0.1,0.2c0,0,0,0,0,0c0,0,0,0,0,0.1c0,0,0,0,0,0c0,0,0,0,0,0.1l0,0c0,0,0,0.1,0,0.1c0,0,0,0,0,0c0,0,0,0,0,0.1
			c0,0,0,0,0,0c0,0,0,0.1,0,0.1v0c0,0,0,0.1,0,0.1c0,0,0,0,0,0c0,0,0,0,0,0.1c0,0,0,0,0,0c0,0,0,0.1,0,0.1c0,0,0,0,0,0
			c0,0,0,0.1,0,0.1c0,0,0,0,0,0c0,0,0,0.1,0,0.1c0,0,0,0,0,0c0,0,0,0.1,0,0.1c0,0,0,0,0,0c0,0,0,0.1,0,0.1c0,0,0,0,0,0
			c0,0,0,0.1,0,0.1c0,0,0,0,0,0c0,0,0,0.1,0,0.1c0,0,0,0,0,0c0,0,0,0.1,0,0.1c0,0,0,0,0,0c0,0,0,0.1,0,0.1c0,0,0,0,0,0
			c0,0,0,0.1,0,0.1c0,0,0,0,0,0c0,0,0,0.1-0.1,0.1c0,0,0,0,0,0c0,0,0,0.1-0.1,0.1c0,0,0,0,0,0c0,0,0,0.1-0.1,0.1c0,0,0,0,0,0
			c0,0-0.1,0.1-0.1,0.1c0,0,0,0,0,0c0,0-0.1,0.1-0.1,0.1c0,0,0,0,0,0c0,0-0.1,0.1-0.1,0.1c0,0,0,0,0,0c0,0-0.1,0.1-0.1,0.2
			c0,0-0.1,0.1-0.1,0.1c0,0,0,0,0,0c0,0-0.1,0.1-0.1,0.1c0,0,0,0,0,0c0,0-0.1,0.1-0.1,0.1l0,0c0,0-0.1,0.1-0.1,0.1c0,0,0,0,0,0
			c0,0-0.1,0.1-0.1,0.1c0,0,0,0,0,0c0,0-0.1,0.1-0.1,0.1c0,0,0,0,0,0c0,0-0.1,0.1-0.1,0.1c0,0,0,0,0,0c0,0-0.1,0-0.1,0.1
			c0,0,0,0,0,0c0,0-0.1,0-0.1,0.1c0,0,0,0,0,0c0,0-0.1,0-0.1,0.1c0,0,0,0,0,0c0,0-0.1,0-0.1,0c0,0,0,0,0,0c0,0-0.1,0-0.1,0h0
			c0,0-0.1,0-0.1,0c0,0,0,0,0,0c0,0-0.1,0-0.1,0c0,0,0,0,0,0c0,0-0.1,0-0.1,0h0c0,0-0.1,0-0.1,0c0,0,0,0,0,0c0,0-0.1,0-0.1,0
			c0,0,0,0,0,0c0,0-0.1,0-0.1,0h0c0,0-0.1,0-0.1,0h0h0c0,0,0,0,0,0c0,0-0.1,0-0.1,0c0,0,0,0,0,0c0,0-0.1,0-0.1,0h0c0,0-0.1,0-0.1,0
			c0,0,0,0,0,0c0,0-0.1,0-0.1,0c0,0,0,0,0,0c0,0-0.1,0-0.1,0c0,0,0,0,0,0c0,0-0.1,0-0.1,0c0,0,0,0,0,0c0,0-0.1,0-0.1,0c0,0,0,0,0,0
			c0,0-0.1,0-0.1-0.1c0,0,0,0,0,0c0,0-0.1,0-0.1,0c0,0,0,0,0,0c0,0-0.1,0-0.1-0.1c0,0,0,0,0,0c0,0,0,0-0.1-0.1c0,0,0,0,0,0
			c0,0,0,0-0.1-0.1l0,0c0,0-0.1-0.1-0.1-0.1c0,0,0,0,0,0c0,0,0,0-0.1-0.1c0,0,0,0,0,0c0,0,0-0.1-0.1-0.1c0,0,0,0,0,0c0,0,0,0,0-0.1
			c0,0,0,0,0,0c0,0,0-0.1,0-0.1c0,0,0,0,0,0c0,0,0-0.1,0-0.1c0,0,0,0,0,0c0,0,0,0,0-0.1c0,0,0,0,0,0c0,0,0-0.1,0-0.1c0,0,0,0,0,0
			c0,0,0,0,0-0.1c0,0,0,0,0,0c0,0,0-0.1,0-0.1v0c0,0,0-0.1,0-0.1c0,0,0,0,0,0c0,0,0,0,0-0.1c0,0,0,0,0,0c0,0,0-0.1,0-0.1
			c0,0,0,0,0,0c0,0,0,0,0-0.1c0,0,0,0,0,0c0,0,0-0.1,0-0.1l0,0c0,0,0-0.1,0-0.1c0,0,0,0,0,0c0,0,0,0,0-0.1c0,0,0,0,0,0
			c0,0,0-0.1,0-0.1c0,0,0,0,0,0c0,0,0,0,0-0.1c0,0,0,0,0,0c0,0,0,0,0.1-0.1C36.2,36.5,36,36.2,36.4,35.7z M24.1,22.3l0.3,0.3
			l0.3-0.3l-0.2,0.4l0.4,0.2l-0.4,0l-0.1,0.5l-0.1-0.5l-0.4,0l0.4-0.2L24.1,22.3z M26.2,19.7l0.3,0.3l0.3-0.3l-0.2,0.4l0.4,0.2
			l-0.4,0l-0.1,0.5l-0.1-0.5l-0.4,0l0.4-0.2L26.2,19.7z M31,22.1l1.8,1.2l0.5-3.3l0.5,3.3l1.8-1.2l-1,1.6l-0.2,0.3l0.2,0l3,0.4
			l-3,0.5l-0.2,0l0.2,0.3l1,1.6l-1.5-1l-0.3-0.2l0,0.2l-0.4,3.1L32.9,26l0-0.2L32.5,26L31,27l1.2-1.9L29,24.6l3.2-0.4L31,22.1z
			 M35.9,18.3l0.3,0.3l0.3-0.3l-0.2,0.4l0.4,0.2l-0.4,0l-0.1,0.5l-0.1-0.5l-0.4,0l0.4-0.2L35.9,18.3z M29.4,18l0.3,0.3l0.3-0.3
			l-0.2,0.4l0.4,0.2l-0.4,0l-0.1,0.5l-0.1-0.5l-0.4,0l0.4-0.2L29.4,18z M29,17.2c-0.6,0.1-1.3,0.1-1.9-0.1l1.5-0.4
			c0.6,0,1.3-0.2,1.9,0.1L29,17.2z M39,20l0.3,0.3l0.3-0.3l-0.2,0.4l0.4,0.2l-0.4,0L39.3,21l-0.1-0.5l-0.4,0l0.4-0.2L39,20z
			 M41.3,22.8l0.3,0.3l0.3-0.3l-0.2,0.4l0.4,0.2l-0.4,0l-0.1,0.5l-0.1-0.5l-0.4,0l0.4-0.2L41.3,22.8z M42.6,26.2l0.3,0.3l0.3-0.3
			l-0.2,0.4l0.4,0.2l-0.4,0L43,27.3l-0.1-0.5l-0.4,0l0.4-0.2L42.6,26.2z M46.4,28.3c0.6,1,0.9,2.3,1.1,3.6c-0.4-0.7-0.8-1.3-0.9-2.2
			L46.4,28.3z M33.5,17.7l-0.2,0.4l0.4,0.2l-0.4,0l-0.1,0.5l-0.1-0.5l-0.4,0l0.4-0.2l-0.2-0.4l0.3,0.3L33.5,17.7z M24,18.3l0.7-0.9
			l0.6-0.5l1.1-0.4v0.1l-0.9,0.9l-1.4,1.3c0,0,0.1,0-0.1,0.2l0.2-0.1l1.4-1l1.1-0.7l0.8-0.9l0.6-0.4l1.6-0.5h0L28.6,16l-1.8,0.8
			c-0.1,0-0.1,0.1-0.2,0.1l0.7-0.2l1.2-0.4l1.9-0.6l1.2-0.1c0.5,0,1,0.2,1.4,0.4h-0.8l-1.5,0.2l-1.7,0l-1.5,0.5l-1.6,0.7l-1.2,0.8v0
			c0.7-0.3,1.4-0.7,2.2-0.7l0.7,0l-1.3,0.7l-1.1,0.3l-1.1,0.2L22.8,20c-0.2,0.3-0.6,0.5-0.7,0.8c0.4-0.2,0.7-0.7,1.2-1l1-0.5
			l0.7-0.2l-1.5,1.2c-0.5,0.4-1.1,0.5-1.7,0.7l-1.2,1.6l-0.1,0.2l0,0c0.7-1,1.7-1.6,2.6-2l-1.2,1.3l-1.6,1l-0.3,0.4l-0.7,1.6
			c0,0.1,0,0.2,0,0.3l0,0l0.9-1.4c0.4-0.6,0.9-0.9,1.4-1.2l-1.2,1.8c-0.4,0.5-0.9,0.8-1.4,1.2l-0.4,1.4l-0.3,1.4l-0.1,1.7
			c0,0.6,0.1,1.3,0.2,2c0.1-0.4,0.1-1,0.1-1.5c0.1-0.9,0.4-1.9,1-2.5c-0.2,1-0.2,2.2-0.7,3.1c-0.2,0.5-0.6,1-0.4,1.6l0.4,1.7l0,0.1
			c0-0.6-0.1-1.1,0-1.7c0.1-0.8,0.4-1.4,0.5-2.2c0.2,1,0.2,2-0.1,3c-0.1,0.5-0.4,1-0.2,1.6l0.6,1.4c0.2,0.4,0.4,0.8,0.6,1.1l0,0
			c-0.2-0.7-0.6-1.4-0.6-2.2l0-2c0-0.1,0-0.2,0-0.3c0.5,0.7,0.5,1.6,0.6,2.5l0,1.8l0.2,0.6l1.2,1.6c0.1,0.2,0.3,0.3,0.4,0.5
			c-0.2-0.5-0.5-0.9-0.6-1.4l-0.3-1l-0.4-1.8l-0.1-0.2c0.6,0.7,1,1.7,1.3,2.7l0.3,1.8l0.4,0.5l1.5,1.2c0,0,0,0,0.1,0
			c-0.5-0.6-0.9-1.3-1.2-2.1L22.7,39c-0.1-0.1-0.1-0.2-0.1-0.3c0.4,0.4,0.8,1,1.2,1.6l0.6,1.6c0.1,0.3,0.2,0.7,0.4,0.9l1.9,1.1
			c0.2,0,0.3,0.2,0.5,0.2c-0.6-0.6-1.4-1-1.9-1.9l-0.9-1.5l0.7,0.5l0.8,0.9l0.8,1.3c0.3,0.6,0.7,0.9,1.1,1.1l1.5,0.5c0,0,0.1,0,0,0
			c-0.8-0.5-1.6-1.1-2.2-2l-0.9-1.2l1.3,0.8l0.9,1l1.2,1.4l0.5,0.2l2,0.3c0.1,0,0.2,0.1,0.3,0L32,45.3L30.9,45L30,44.4l-1-1
			l-0.5-0.5l0.6,0.2l1.4,0.8l1.7,1.4c0.6,0.3,1.3,0.3,1.8-0.2l1.2-1l1-0.6l1.1-0.4h0.1l-1.5,1.3l-1,0.6c-0.3,0.2-0.7,0.2-1,0.4
			l0.9,0l-1,0.2c-0.1,0-0.2,0-0.3,0l0.2,0.1l2.4,0.3l1.4,0.3c0.1,0,0.1,0,0.2,0l-0.6,0.2l-1.3,0.1c-0.9,0-1.8-0.4-2.5-1
			c-0.5,0.5-1.1,0.7-1.8,0.9l-1.1,0.1L29,46.4l-0.2-0.1l0.8,0l1.2-0.3l1.4-0.1c0.2,0,0.3,0,0.4-0.1l-0.1-0.1l-1.2-0.1l-0.7-0.1
			l-1.3,0.3l-0.8,0l-1.3-0.2L26,45.2h1.4l1.3,0l1.6,0.2c0.1,0,0.2,0,0.2,0l-0.1-0.1L29.1,45l-1.2-0.4l-1.3,0.1l-1-0.1l-1.2-0.4
			l-1-0.5l3,0.4l1.1,0.4l0,0l-0.4-0.2l-1.2-0.6l-0.4-0.3h-0.2l-1.7-0.4l-1.2-0.6l-0.9-0.6l-0.8-0.8l1.7,0.7l1.8,1l0.9,0.5
			c0.1,0,0-0.1,0-0.2l-1-0.6l-1.3-1.1l-1-1.1l-1.3-1.8l-0.6-1.1l-0.7-1.7l-0.3-0.8l-0.8-1.1l-0.4-1l-0.3-1.1l-0.1-1.1v-0.1h0
			l0.3,0.8l0.6,1.4l0.3,1l0.2,0.9l0,0v-0.3l-0.3-1.2l-0.2-1.8L18.3,31l-0.5-1.1l-0.2-1l0-0.9l0.2-1l0.1-0.2l0,0l0.2,1.4l0.2,1.2
			l0,1.4v0.1l0,0l0-0.1l0-1.2l0.2-1.6l0.1-0.3l-0.3-1l-0.1-0.8l0.1-0.9l0.4-1l0,0c0,0,0.1-0.1,0.1-0.1l-0.1,2.1l-0.2,1.3
			c0,0,0-0.1,0,0.1l0.1-0.1l0.3-1.1l0.4-1.3l0.8-1.6l1.2-1.8l1.2-1.4l1.1-1L24,18.3z M22.8,25.7l0.3,0.3l0.3-0.3l-0.2,0.4l0.4,0.2
			l-0.4,0l-0.1,0.5l-0.1-0.5l-0.4,0l0.4-0.2L22.8,25.7z M20.3,25.2l-0.6,1.8c-0.3,0.7-0.8,1.3-1.1,1.8
			C18.8,27.4,19.5,26.1,20.3,25.2z M23.5,18.1l-1,1.7l-1,1.2l0,0C21.7,19.8,22.6,18.5,23.5,18.1z"/>
		<polygon class="st2" points="56.2,28.4 55.3,28.9 56.3,28.8 56.5,29.9 56.8,28.9 57.9,29 57,28.4 57.4,27.4 56.6,28.1 55.8,27.3 
					"/>
		<polygon class="st2" points="52.3,17.1 52.5,18.2 52.8,17.1 53.8,17.2 53,16.6 53.4,15.6 52.6,16.3 51.8,15.6 52.2,16.6 
			51.2,17.2 		"/>
		<polygon class="st2" points="53.8,22.5 54.9,22.4 55.1,23.5 55.4,22.4 56.4,22.6 55.6,22 56,21 55.1,21.7 54.4,20.9 54.8,21.9 		
			"/>
		<polygon class="st2" points="14.1,17.4 14.3,16.3 15.4,16.5 14.5,15.9 14.9,14.8 14.1,15.5 13.3,14.8 13.7,15.8 12.8,16.4 
			13.8,16.3 		"/>
		<polygon class="st2" points="10.9,21.7 11.1,22.8 11.4,21.7 12.4,21.9 11.6,21.3 12,20.3 11.2,21 10.4,20.2 10.8,21.2 9.8,21.8 		
			"/>
		<polygon class="st2" points="9.2,27.8 9.4,28.9 9.7,27.9 10.8,28 9.9,27.4 10.3,26.4 9.5,27.1 8.7,26.3 9.1,27.4 8.1,27.9 		"/>
		<path class="st2" d="M14.2,10.5c0.3-0.1,0.6,0.1,0.8,0.4l4.1,5.3c0.2,0.3,0.3,0.6,0.2,0.9c-0.1,0.2-0.3,0.4-0.6,0.7L19,18l3.7-3.1
			l-0.2-0.3c-0.3,0.3-0.6,0.4-0.9,0.5c-0.2,0-0.5-0.1-0.7-0.4l-4.1-5.3c-0.2-0.3-0.3-0.6-0.2-0.9c0.1-0.2,0.3-0.4,0.6-0.7l-0.2-0.3
			l-3.7,3.1l0.2,0.3C13.8,10.6,14,10.5,14.2,10.5z"/>
		<path class="st2" d="M28.9,11.2c1,0.7,2.1,1,3.5,0.9c0.9-0.1,1.6-0.4,2.3-1c0.4-0.3,0.8-0.8,1.2-1.5l-0.4-0.3
			c-0.4,0.6-0.8,1-1.1,1.2c-0.6,0.5-1.2,0.7-1.9,0.8c-1.1,0.1-2-0.4-2.5-1.6c-0.3-0.6-0.5-1.4-0.6-2.4C29.3,6,29.4,4.8,29.7,4
			c0.3-0.8,0.9-1.3,1.8-1.4c0.8-0.1,1.6,0.2,2.2,0.9c0.4,0.4,0.8,0.9,1.2,1.6l0.3,0l-0.3-3.3l-0.4,0c0,0.2-0.1,0.3-0.2,0.5
			c-0.1,0.2-0.2,0.2-0.4,0.3c-0.1,0-0.4-0.1-1-0.2c-0.6-0.2-1.2-0.2-1.7-0.2c-1.3,0.1-2.3,0.7-3.2,1.7c-0.9,1-1.2,2.3-1.1,3.8
			C27.2,9.2,27.8,10.4,28.9,11.2z"/>
		<path class="st2" d="M44.2,15.5c-0.4-0.3-0.6-0.5-0.6-0.8c0-0.2,0.1-0.5,0.3-1l1.5-2.3l0.3,0.2l-0.1,5.3l2.3,1.6l0.2-0.3
			c-0.1-0.1-0.2-0.2-0.2-0.2c-0.1-0.1-0.1-0.2-0.1-0.3l0.1-4.8c0.4,0.2,0.8,0.2,1.3,0.2c0.7-0.1,1.2-0.4,1.6-1.1
			c0.6-0.9,0.5-1.8-0.2-2.7c-0.4-0.5-0.9-1-1.7-1.5l-3.6-2.5l-0.2,0.3c0.3,0.3,0.6,0.5,0.6,0.7c0.1,0.2,0,0.6-0.3,1l-3.3,5.2
			c-0.3,0.4-0.5,0.7-0.8,0.7c-0.2,0-0.5-0.1-0.9-0.3l-0.2,0.3l3.8,2.6L44.2,15.5z M47.6,8.1c0.1-0.2,0.2-0.3,0.4-0.3
			c0.1,0,0.4,0.1,0.7,0.3c0.6,0.4,0.8,0.9,0.7,1.5c-0.1,0.3-0.2,0.7-0.5,1.2c-0.5,0.7-0.9,1.1-1.4,1.1c-0.4,0-1-0.3-1.8-0.8
			L47.6,8.1z"/>
		<polygon class="st2" points="11.6,32.5 8.7,32.8 8.8,33.3 11.6,33.1 		"/>
		<polygon class="st2" points="11.9,35 9.7,35.4 9.7,35.4 11.8,34.1 11.6,33.3 8.8,33.8 8.9,34.3 11.2,33.9 11.2,33.9 9,35.2 
			9.2,35.9 12,35.5 		"/>
		<polygon class="st2" points="12,37.5 12.5,37.4 12,35.5 11.5,35.7 11.7,36.3 9.4,37 9.5,37.5 11.8,36.8 		"/>
		<polygon class="st2" points="10.4,38.8 11.1,38.5 11.5,39.5 11.9,39.3 11.6,38.3 12.2,38.1 12.6,39.1 13,39 12.5,37.5 9.8,38.5 
			10.3,40 10.8,39.8 		"/>
		<path class="st2" d="M11.8,41.8c0.2-0.1,0.4-0.2,0.4-0.3c0.1-0.1,0.1-0.2,0.1-0.4h0c0.1,0.1,0.2,0.2,0.4,0.2c0.2,0,0.3,0,0.5-0.1
			c0.2-0.1,0.4-0.3,0.4-0.5c0-0.2,0-0.4-0.1-0.6l-0.4-0.9l-2.6,1.2l0.2,0.5l1.1-0.5l0.2,0.5c0.1,0.1,0,0.2-0.3,0.4
			c-0.3,0.2-0.5,0.3-0.7,0.4l0.2,0.5c0.1-0.1,0.1-0.2,0.3-0.2C11.6,42,11.7,41.9,11.8,41.8z M12.9,39.9l0.2,0.4
			c0.1,0.2,0,0.4-0.2,0.5c-0.2,0.1-0.4,0.1-0.5-0.2l-0.2-0.4L12.9,39.9z"/>
		<polygon class="st2" points="14.8,42.5 12.8,43.7 12.8,43.7 14.3,41.7 13.9,41.1 11.5,42.6 11.7,43 13.8,41.7 13.8,41.7 
			12.2,43.8 12.5,44.4 15,42.9 		"/>
		<path class="st2" d="M15.5,43.7l-2.8,1.1l0.3,0.4l0.6-0.2l0.5,0.8l-0.4,0.5l0.3,0.4l1.8-2.4L15.5,43.7z M14.4,45.3L14,44.7
			l1.2-0.5l0,0L14.4,45.3z"/>
		<polygon class="st2" points="17.2,46.5 17.5,46.2 16.3,44.8 15.9,45.1 16.4,45.6 14.6,47.3 14.9,47.7 16.7,46 		"/>
		<polygon class="st2" points="17.6,46.3 15.6,48.4 15.9,48.8 18,46.7 		"/>
		<path class="st2" d="M18.8,49.4c0.3-0.3,0.5-0.7,0.5-1c0-0.4-0.1-0.7-0.3-0.9c-0.3-0.2-0.6-0.3-0.9-0.2c-0.3,0.1-0.6,0.3-0.9,0.7
			c-0.3,0.3-0.5,0.7-0.5,1c0,0.4,0.1,0.7,0.3,0.9s0.6,0.3,0.9,0.2C18.2,50,18.5,49.8,18.8,49.4z M17.3,49.5
			c-0.3-0.3-0.2-0.7,0.2-1.2c0.5-0.5,0.8-0.7,1.1-0.4s0.2,0.7-0.2,1.2C17.9,49.6,17.6,49.8,17.3,49.5z"/>
		<polygon class="st2" points="21.2,49.4 19.9,51.3 19.9,51.3 20.5,48.9 19.9,48.4 18.2,50.9 18.6,51.1 20,49.1 20,49.1 19.4,51.7 
			19.9,52.1 21.6,49.6 		"/>
		<path class="st2" d="M22.4,50.1l-2.1,2.2l0.4,0.2l0.4-0.5l0.8,0.5l-0.2,0.6l0.4,0.2l0.7-3L22.4,50.1z M22,52l-0.6-0.3l0.9-0.9h0
			L22,52z"/>
		<polygon class="st2" points="23.7,50.8 22.5,53.6 23.8,54.2 24,53.7 23.1,53.3 24.1,51 		"/>
		<path class="st2" d="M26.3,54.5c-0.1,0.1-0.2,0.1-0.4,0.1c-0.2,0-0.2-0.2-0.2-0.5c0-0.2,0-0.4,0.1-0.7c0.1-0.3,0.2-0.5,0.3-0.6
			c0.2-0.2,0.3-0.3,0.4-0.3c0.1,0,0.2,0.1,0.3,0.2s0,0.3,0,0.4l0.5,0.2c0.1-0.3,0.1-0.6-0.1-0.8c-0.1-0.2-0.3-0.3-0.6-0.4
			c-0.3-0.1-0.6,0-0.8,0.2c-0.2,0.2-0.4,0.5-0.5,1s-0.2,0.8-0.1,1.1c0.1,0.3,0.3,0.6,0.6,0.7c0.3,0.1,0.5,0.1,0.7,0
			c0.2-0.1,0.4-0.3,0.5-0.7l-0.5-0.2C26.5,54.3,26.4,54.4,26.3,54.5z"/>
		<polygon class="st2" points="29.1,53.2 29.2,52.7 27.7,52.4 27.1,55.3 28.7,55.6 28.8,55.1 27.7,54.9 27.9,54.1 28.8,54.3 
			28.9,53.9 28,53.6 28.1,53 		"/>
		<path class="st2" d="M30.4,52.9l-1-0.1l-0.3,3l0.5,0.1l0.1-1.2l0.5,0.1c0.1,0,0.2,0.2,0.2,0.4c0,0.3,0,0.6,0,0.8l0.5,0.1
			c0-0.1-0.1-0.2-0.1-0.3c0,0,0-0.2,0-0.4c0-0.3,0-0.5,0-0.5c0-0.2-0.1-0.2-0.3-0.3v0c0.2,0,0.3-0.1,0.4-0.2s0.2-0.3,0.2-0.5
			c0-0.3,0-0.5-0.2-0.6C30.8,53,30.7,52.9,30.4,52.9z M30.6,53.8c0,0.3-0.2,0.4-0.4,0.4l-0.4,0l0.1-0.8l0.4,0
			C30.5,53.4,30.6,53.5,30.6,53.8z"/>
		<polygon class="st2" points="31.3,53.5 31.9,53.5 31.9,56 32.3,56 32.4,53.5 33.1,53.5 33.1,53.1 31.3,53 		"/>
		
			<rect x="33.2" y="53" transform="matrix(0.9997 -2.340061e-02 2.340061e-02 0.9997 -1.2665 0.797)" class="st2" width="0.5" height="3"/>
		<polygon class="st2" points="35.5,54.1 34.6,54.2 34.5,53.5 35.5,53.4 35.5,52.9 34,53 34.2,56 34.7,55.9 34.6,54.7 35.6,54.6 		
			"/>
		<polygon class="st2" points="35.6,52.9 36,55.8 36.5,55.7 36.1,52.8 		"/>
		<path class="st2" d="M38,54.5c0,0.2,0,0.3,0,0.4c-0.1,0.1-0.2,0.2-0.3,0.2c-0.2,0-0.3-0.1-0.4-0.3c-0.1-0.2-0.2-0.4-0.2-0.7
			C37,53.9,37,53.6,37,53.4c0-0.3,0.1-0.4,0.3-0.5c0.1,0,0.3,0,0.3,0.1s0.2,0.2,0.2,0.4l0.5-0.1c-0.1-0.3-0.2-0.6-0.4-0.7
			c-0.2-0.1-0.4-0.2-0.7-0.1c-0.3,0.1-0.5,0.3-0.6,0.6c-0.1,0.3-0.1,0.7,0,1.1c0.1,0.5,0.2,0.8,0.4,1c0.2,0.3,0.5,0.4,0.8,0.3
			c0.3-0.1,0.5-0.2,0.6-0.4c0.2-0.2,0.2-0.5,0.1-0.8L38,54.5z"/>
		<path class="st2" d="M38.9,52.2l0,3.1l0.4-0.1l0-0.7l0.9-0.3l0.3,0.6l0.5-0.2L39.5,52L38.9,52.2z M39.4,53.9l0-1.3h0l0.7,1.1
			L39.4,53.9z"/>
		<polygon class="st2" points="42.1,51.5 41.9,51 40.2,51.8 40.4,52.2 41,52 41.9,54.3 42.4,54.1 41.5,51.8 		"/>
		<polygon class="st2" points="42,51 43.2,53.7 43.7,53.4 42.4,50.7 		"/>
		<path class="st2" d="M44.5,50c-0.3-0.2-0.6-0.2-0.9,0s-0.5,0.5-0.5,0.8c0,0.3,0.1,0.7,0.3,1.1c0.2,0.4,0.5,0.7,0.8,0.8
			c0.3,0.2,0.6,0.1,0.9,0c0.3-0.2,0.5-0.5,0.5-0.8c0-0.3-0.1-0.7-0.3-1.1C45,50.4,44.8,50.2,44.5,50z M44.8,52.4
			c-0.3,0.2-0.7,0-1-0.7s-0.3-1,0-1.2s0.7,0,1,0.7C45.1,51.7,45.2,52.2,44.8,52.4z"/>
		<polygon class="st2" points="46,48.5 47.3,50.4 47.3,50.4 45.3,49 44.7,49.5 46.4,51.9 46.7,51.6 45.3,49.6 45.3,49.6 47.5,51 
			48,50.6 46.4,48.2 		"/>
		<path class="st2" d="M50.5,47.3C50.3,47.1,50.1,47,50,47c-0.1-0.1-0.3,0-0.4,0.1l0,0c0.1-0.1,0.1-0.3,0.1-0.4
			c0-0.2-0.1-0.3-0.2-0.4c-0.2-0.2-0.4-0.3-0.6-0.2c-0.2,0-0.3,0.1-0.5,0.3L47.7,47l2.1,2.1l0.3-0.4l-0.8-0.8l0.4-0.4
			c0.1-0.1,0.2,0,0.4,0.1c0.3,0.2,0.5,0.4,0.6,0.5l0.4-0.4c-0.1,0-0.2-0.1-0.3-0.2C50.7,47.5,50.6,47.4,50.5,47.3z M49.2,47.2
			l-0.3,0.3L48.4,47l0.3-0.3c0.2-0.2,0.3-0.2,0.5,0C49.4,46.8,49.4,47,49.2,47.2z"/>
		<polygon class="st2" points="51.2,46.7 50.6,46.2 51.2,45.4 50.9,45.1 50.3,45.9 49.8,45.4 50.4,44.6 50,44.3 49.1,45.5 
			51.3,47.4 52.3,46.1 51.9,45.8 		"/>
		<polygon class="st2" points="51.3,42.3 53.8,43.9 54,43.4 51.5,41.9 		"/>
		<path class="st2" d="M54.3,40.9c-0.2-0.1-0.4-0.1-0.7,0c-0.1,0.1-0.3,0.2-0.5,0.4c-0.1,0.1-0.2,0.2-0.2,0.2c-0.1,0-0.2,0-0.3,0
			c-0.1,0-0.2-0.1-0.2-0.2c0-0.1,0-0.2,0-0.3c0.1-0.2,0.3-0.3,0.6-0.2l0.2-0.4c-0.2-0.1-0.5-0.2-0.7-0.1c-0.2,0.1-0.3,0.2-0.4,0.4
			C52,41,51.9,41.3,52,41.5c0.1,0.3,0.2,0.5,0.5,0.6c0.2,0.1,0.4,0.1,0.6,0c0.1-0.1,0.3-0.2,0.4-0.3c0.2-0.2,0.2-0.3,0.2-0.3
			c0.1-0.1,0.2-0.1,0.4,0c0.1,0.1,0.2,0.2,0.2,0.3c0,0.1,0,0.2-0.1,0.3c-0.1,0.1-0.2,0.2-0.3,0.2c-0.1,0-0.2,0-0.4-0.1l-0.2,0.5
			c0.6,0.3,1,0.2,1.3-0.3c0.1-0.3,0.2-0.5,0.1-0.7C54.7,41.3,54.6,41.1,54.3,40.9z"/>
		<polygon class="st2" points="53.7,38.4 53.2,38.2 52.5,40 53,40.2 53.2,39.5 55.4,40.5 55.6,40 53.4,39 		"/>
		<path class="st2" d="M56.2,37.2c0,0-0.1,0-0.3-0.1c-0.3,0-0.4-0.1-0.5-0.1c-0.2,0-0.2,0.1-0.3,0.3h0c0-0.2,0-0.3-0.1-0.4
			s-0.2-0.2-0.4-0.3c-0.3-0.1-0.5-0.1-0.6,0.1c-0.1,0.1-0.2,0.3-0.3,0.5l-0.3,1L56,39l0.2-0.5L55,38.2l0.2-0.5
			c0-0.1,0.2-0.2,0.4-0.1c0.3,0.1,0.6,0.1,0.8,0.2l0.2-0.5C56.4,37.2,56.3,37.2,56.2,37.2z M54.7,37.6L54.6,38l-0.7-0.2l0.1-0.4
			c0.1-0.2,0.2-0.3,0.4-0.2C54.7,37.2,54.8,37.4,54.7,37.6z"/>
		<path class="st2" d="M53.9,35.5l2.6,1.5l0.1-0.5l-0.6-0.3l0.2-0.9l0.6,0l0.1-0.5l-3,0.2L53.9,35.5z M54.6,35.3l1.2-0.1l-0.1,0.7
			L54.6,35.3L54.6,35.3z"/>
		<path class="st2" d="M56.6,32.5c-0.3,0-0.4,0-0.5,0c-0.1,0-0.2,0.2-0.3,0.3h0c0-0.2-0.1-0.3-0.2-0.4c-0.1-0.1-0.3-0.2-0.4-0.2
			c-0.3,0-0.5,0-0.6,0.2c-0.1,0.1-0.2,0.3-0.2,0.5l-0.1,1l2.8,0.3l0.1-0.5L56,33.7l0.1-0.5c0-0.1,0.2-0.2,0.4-0.2c0.3,0,0.6,0,0.8,0
			l0.1-0.6c-0.1,0-0.2,0-0.3,0.1C56.9,32.5,56.8,32.5,56.6,32.5z M55.5,33.2l0,0.4l-0.8-0.1l0-0.4c0-0.2,0.2-0.3,0.4-0.3
			C55.5,32.8,55.6,33,55.5,33.2z"/>
		<path class="st2" d="M51.8,44.1l0.4,0.2l0.2-0.4c0.3,0.2,0.4,0.5,0.2,0.7c-0.2,0.3-0.7,0.2-1-0.1c-0.4-0.3-0.7-0.7-0.5-1
			c0.1-0.2,0.3-0.2,0.6-0.1l0.2-0.3c-0.5-0.3-1-0.2-1.2,0.2c-0.3,0.5,0,1.2,0.7,1.6c0.6,0.5,1.3,0.5,1.7,0c0.1-0.2,0.1-0.4,0-0.7
			l0.3,0.1l0.2-0.2l-1.2-0.8L51.8,44.1z"/>
	</g>
</g>
</svg>
